<svg width="50" height="49" viewBox="0 0 50 49" fill="none" xmlns="http://www.w3.org/2000/svg">
<path d="M39.4089 0.320435H10.3698C5.02392 0.320435 0.690186 4.65417 0.690186 10.0001V39.0392C0.690186 44.385 5.02392 48.7188 10.3698 48.7188H39.4089C44.7548 48.7188 49.0885 44.385 49.0885 39.0392V10.0003C49.0887 4.65417 44.755 0.320435 39.4089 0.320435ZM34.569 7.58021H41.8288V14.84H34.569V7.58021ZM24.8894 14.8402C30.2353 14.8402 34.569 19.1739 34.569 24.5198C34.569 29.8657 30.2353 34.1994 24.8894 34.1994C19.5435 34.1994 15.2097 29.8657 15.2097 24.5198C15.2097 19.1739 19.5435 14.8402 24.8894 14.8402ZM44.2488 39.0394C44.2488 41.7123 42.0818 43.8793 39.4089 43.8793H10.3698C7.69687 43.8793 5.5299 41.7123 5.5299 39.0394V22.0998H10.6117C9.15843 29.9859 14.3731 37.557 22.2593 39.0105C30.1454 40.4639 37.7165 35.249 39.17 27.3629C39.3428 26.4254 39.4228 25.4731 39.4089 24.5198C39.3968 23.7077 39.3159 22.8983 39.1668 22.1H44.2486V39.0394H44.2488Z" fill="black"/>
</svg>
