<svg width="132" height="59" viewBox="0 0 132 59" fill="none" xmlns="http://www.w3.org/2000/svg">
<path d="M0.418488 41.8979L18.6107 1.08211H27.94L46.1905 41.8979H36.2781L21.3512 5.86339H25.0829L10.0977 41.8979H0.418488ZM9.51458 33.1517L12.0218 25.9798H33.0128L35.5784 33.1517H9.51458Z" fill="white"/>
<path d="M50.4251 41.8979V1.08211H70.3666C75.4977 1.08211 79.3461 2.05392 81.9116 3.99753C84.5161 5.94114 85.8183 8.5067 85.8183 11.6942C85.8183 13.8322 85.2935 15.6981 84.2439 17.2918C83.1944 18.8467 81.7561 20.0517 79.9291 20.9069C78.1021 21.7621 76.003 22.1897 73.6318 22.1897L74.7397 19.7991C77.3053 19.7991 79.5793 20.2267 81.5618 21.0819C83.5443 21.8982 85.0797 23.1226 86.1681 24.7553C87.2954 26.3879 87.8591 28.3898 87.8591 30.761C87.8591 34.2595 86.4791 37 83.7192 38.9825C80.9593 40.9261 76.8971 41.8979 71.5327 41.8979H50.4251ZM59.8128 34.7843H70.833C73.282 34.7843 75.1284 34.3956 76.3723 33.6181C77.6551 32.8018 78.2965 31.519 78.2965 29.7698C78.2965 28.0594 77.6551 26.7961 76.3723 25.9798C75.1284 25.1246 73.282 24.697 70.833 24.697H59.1131V17.8166H69.2004C71.4939 17.8166 73.2431 17.4279 74.4482 16.6504C75.6921 15.8341 76.314 14.6096 76.314 12.977C76.314 11.3832 75.6921 10.1976 74.4482 9.4202C73.2431 8.60388 71.4939 8.19572 69.2004 8.19572H59.8128V34.7843Z" fill="white"/>
<path d="M114.544 42.5976C111.395 42.5976 108.46 42.0923 105.739 41.0816C103.057 40.032 100.725 38.5549 98.7422 36.6502C96.7597 34.7454 95.2048 32.5103 94.0775 29.9447C92.9891 27.3791 92.4449 24.5609 92.4449 21.49C92.4449 18.4191 92.9891 15.6009 94.0775 13.0353C95.2048 10.4697 96.7597 8.2346 98.7422 6.32986C100.764 4.42512 103.115 2.96741 105.798 1.95674C108.48 0.907189 111.415 0.382416 114.602 0.382416C118.139 0.382416 121.327 1.00437 124.165 2.24828C127.041 3.45332 129.451 5.24144 131.395 7.61264L125.331 13.2102C123.931 11.6165 122.377 10.4309 120.666 9.65343C118.956 8.83712 117.09 8.42896 115.069 8.42896C113.164 8.42896 111.415 8.73993 109.821 9.36189C108.227 9.98384 106.847 10.8779 105.681 12.0441C104.515 13.2102 103.601 14.5902 102.94 16.184C102.318 17.7777 102.007 19.5464 102.007 21.49C102.007 23.4336 102.318 25.2023 102.94 26.7961C103.601 28.3898 104.515 29.7698 105.681 30.936C106.847 32.1021 108.227 32.9962 109.821 33.6181C111.415 34.2401 113.164 34.5511 115.069 34.5511C117.09 34.5511 118.956 34.1623 120.666 33.3849C122.377 32.5686 123.931 31.3441 125.331 29.7115L131.395 35.3091C129.451 37.6803 127.041 39.4878 124.165 40.7317C121.327 41.9757 118.12 42.5976 114.544 42.5976Z" fill="white"/>
<path d="M2.5274 58.2099C2.03079 58.2099 1.55487 58.1449 1.09964 58.0148C0.644414 57.8788 0.277866 57.7044 0 57.4916L0.487744 56.4097C0.753787 56.5989 1.06713 56.7556 1.42776 56.8797C1.79431 56.9979 2.16381 57.0571 2.53627 57.0571C2.82005 57.0571 3.04766 57.0305 3.21911 56.9773C3.39647 56.9181 3.52654 56.8383 3.60931 56.7378C3.69208 56.6373 3.73346 56.522 3.73346 56.392C3.73346 56.2264 3.66843 56.0964 3.53836 56.0018C3.4083 55.9013 3.23685 55.8214 3.02401 55.7623C2.81118 55.6973 2.5747 55.6382 2.31457 55.585C2.06035 55.5258 1.80318 55.4549 1.54305 55.3721C1.28883 55.2894 1.0553 55.1829 0.842467 55.0529C0.629634 54.9228 0.455228 54.7514 0.319251 54.5385C0.189186 54.3257 0.124153 54.0537 0.124153 53.7227C0.124153 53.3679 0.218746 53.0457 0.407932 52.756C0.603029 52.4604 0.89272 52.2269 1.277 52.0555C1.6672 51.8781 2.15494 51.7894 2.74024 51.7894C3.13043 51.7894 3.51471 51.8367 3.89309 51.9313C4.27146 52.02 4.60549 52.156 4.89518 52.3392L4.45178 53.43C4.16208 53.2645 3.87239 53.1433 3.5827 53.0664C3.29301 52.9837 3.00923 52.9423 2.73137 52.9423C2.4535 52.9423 2.22589 52.9748 2.04853 53.0398C1.87116 53.1049 1.74406 53.1906 1.6672 53.297C1.59034 53.3975 1.55191 53.5157 1.55191 53.6517C1.55191 53.8113 1.61695 53.9414 1.74701 54.0419C1.87708 54.1365 2.04853 54.2134 2.26136 54.2725C2.47419 54.3316 2.70772 54.3907 2.96194 54.4499C3.22207 54.509 3.47924 54.577 3.73346 54.6538C3.99359 54.7307 4.23007 54.8341 4.44291 54.9642C4.65574 55.0943 4.82719 55.2657 4.95725 55.4785C5.09323 55.6914 5.16122 55.9604 5.16122 56.2855C5.16122 56.6344 5.06367 56.9536 4.86857 57.2433C4.67348 57.533 4.38083 57.7665 3.99063 57.9439C3.60635 58.1212 3.11861 58.2099 2.5274 58.2099Z" fill="white"/>
<path d="M8.90085 58.2099C8.01995 58.2099 7.3312 57.9646 6.83459 57.4739C6.33797 56.9832 6.08967 56.2826 6.08967 55.3721V51.8958H7.5263V55.3189C7.5263 55.9101 7.64749 56.3358 7.88989 56.5959C8.13228 56.8561 8.47222 56.9861 8.90972 56.9861C9.34721 56.9861 9.68715 56.8561 9.92955 56.5959C10.1719 56.3358 10.2931 55.9101 10.2931 55.3189V51.8958H11.712V55.3721C11.712 56.2826 11.4637 56.9832 10.9671 57.4739C10.4705 57.9646 9.78174 58.2099 8.90085 58.2099Z" fill="white"/>
<path d="M13.1317 58.1035V51.8958H15.8187C16.3744 51.8958 16.8533 51.9875 17.2553 52.1708C17.6574 52.3481 17.9677 52.6053 18.1865 52.9423C18.4052 53.2793 18.5146 53.6813 18.5146 54.1483C18.5146 54.6095 18.4052 55.0085 18.1865 55.3455C17.9677 55.6825 17.6574 55.9426 17.2553 56.1259C16.8533 56.3033 16.3744 56.392 15.8187 56.392H13.9298L14.5683 55.7446V58.1035H13.1317ZM14.5683 55.9042L13.9298 55.2214H15.7389C16.1823 55.2214 16.5134 55.1268 16.7321 54.9376C16.9509 54.7484 17.0602 54.4853 17.0602 54.1483C17.0602 53.8054 16.9509 53.5394 16.7321 53.3502C16.5134 53.161 16.1823 53.0664 15.7389 53.0664H13.9298L14.5683 52.3836V55.9042Z" fill="white"/>
<path d="M19.5403 58.1035V51.8958H22.2273C22.783 51.8958 23.2619 51.9875 23.6639 52.1708C24.0659 52.3481 24.3763 52.6053 24.5951 52.9423C24.8138 53.2793 24.9232 53.6813 24.9232 54.1483C24.9232 54.6095 24.8138 55.0085 24.5951 55.3455C24.3763 55.6825 24.0659 55.9426 23.6639 56.1259C23.2619 56.3033 22.783 56.392 22.2273 56.392H20.3384L20.9769 55.7446V58.1035H19.5403ZM20.9769 55.9042L20.3384 55.2214H22.1475C22.5909 55.2214 22.9219 55.1268 23.1407 54.9376C23.3594 54.7484 23.4688 54.4853 23.4688 54.1483C23.4688 53.8054 23.3594 53.5394 23.1407 53.3502C22.9219 53.161 22.5909 53.0664 22.1475 53.0664H20.3384L20.9769 52.3836V55.9042Z" fill="white"/>
<path d="M25.9488 58.1035V51.8958H27.3855V56.9329H30.4981V58.1035H25.9488Z" fill="white"/>
<path d="M32.203 58.1035V55.5672L32.5312 56.4363L29.7998 51.8958H31.3251L33.418 55.381H32.54L34.6418 51.8958H36.0518L33.3204 56.4363L33.6397 55.5672V58.1035H32.203Z" fill="white"/>
<path d="M42.1351 58.2099C41.6563 58.2099 41.2099 58.1331 40.7961 57.9793C40.3881 57.8197 40.0334 57.5951 39.7319 57.3054C39.4304 57.0157 39.1939 56.6757 39.0224 56.2855C38.8569 55.8953 38.7741 55.4667 38.7741 54.9997C38.7741 54.5326 38.8569 54.104 39.0224 53.7138C39.1939 53.3236 39.4304 52.9837 39.7319 52.694C40.0393 52.4043 40.397 52.1826 40.8049 52.0289C41.2129 51.8692 41.6592 51.7894 42.144 51.7894C42.682 51.7894 43.1668 51.884 43.5984 52.0732C44.0359 52.2565 44.4024 52.5284 44.698 52.8891L43.7757 53.7404C43.5629 53.498 43.3264 53.3177 43.0663 53.1995C42.8062 53.0753 42.5224 53.0132 42.215 53.0132C41.9253 53.0132 41.6592 53.0605 41.4168 53.1551C41.1744 53.2497 40.9646 53.3857 40.7872 53.563C40.6098 53.7404 40.4709 53.9503 40.3704 54.1927C40.2758 54.4351 40.2285 54.7041 40.2285 54.9997C40.2285 55.2953 40.2758 55.5643 40.3704 55.8067C40.4709 56.0491 40.6098 56.2589 40.7872 56.4363C40.9646 56.6137 41.1744 56.7496 41.4168 56.8442C41.6592 56.9388 41.9253 56.9861 42.215 56.9861C42.5224 56.9861 42.8062 56.927 43.0663 56.8088C43.3264 56.6846 43.5629 56.4984 43.7757 56.2501L44.698 57.1014C44.4024 57.462 44.0359 57.737 43.5984 57.9261C43.1668 58.1153 42.6791 58.2099 42.1351 58.2099Z" fill="white"/>
<path d="M49.9249 51.8958H51.3615V58.1035H49.9249V51.8958ZM47.1048 58.1035H45.6682V51.8958H47.1048V58.1035ZM50.0313 55.5584H46.9984V54.3434H50.0313V55.5584Z" fill="white"/>
<path d="M52.0143 58.1035L54.7812 51.8958H56.2001L58.9758 58.1035H57.4682L55.198 52.623H55.7655L53.4864 58.1035H52.0143ZM53.3977 56.7733L53.7791 55.6825H56.9716L57.3618 56.7733H53.3977Z" fill="white"/>
<path d="M59.6198 58.1035V51.8958H61.0564V58.1035H59.6198Z" fill="white"/>
<path d="M62.5296 58.1035V51.8958H63.718L67.3805 56.3654H66.8041V51.8958H68.223V58.1035H67.0435L63.3721 53.634H63.9485V58.1035H62.5296Z" fill="white"/>
<path d="M75.1739 58.2099C74.6951 58.2099 74.2487 58.1331 73.8348 57.9793C73.4269 57.8197 73.0722 57.5951 72.7707 57.3054C72.4692 57.0157 72.2327 56.6757 72.0612 56.2855C71.8957 55.8953 71.8129 55.4667 71.8129 54.9997C71.8129 54.5326 71.8957 54.104 72.0612 53.7138C72.2327 53.3236 72.4692 52.9837 72.7707 52.694C73.0781 52.4043 73.4358 52.1826 73.8437 52.0289C74.2516 51.8692 74.698 51.7894 75.1828 51.7894C75.7208 51.7894 76.2056 51.884 76.6372 52.0732C77.0747 52.2565 77.4412 52.5284 77.7368 52.8891L76.8145 53.7404C76.6017 53.498 76.3652 53.3177 76.1051 53.1995C75.845 53.0753 75.5612 53.0132 75.2537 53.0132C74.9641 53.0132 74.698 53.0605 74.4556 53.1551C74.2132 53.2497 74.0033 53.3857 73.826 53.563C73.6486 53.7404 73.5097 53.9503 73.4092 54.1927C73.3146 54.4351 73.2673 54.7041 73.2673 54.9997C73.2673 55.2953 73.3146 55.5643 73.4092 55.8067C73.5097 56.0491 73.6486 56.2589 73.826 56.4363C74.0033 56.6137 74.2132 56.7496 74.4556 56.8442C74.698 56.9388 74.9641 56.9861 75.2537 56.9861C75.5612 56.9861 75.845 56.927 76.1051 56.8088C76.3652 56.6846 76.6017 56.4984 76.8145 56.2501L77.7368 57.1014C77.4412 57.462 77.0747 57.737 76.6372 57.9261C76.2056 58.1153 75.7178 58.2099 75.1739 58.2099Z" fill="white"/>
<path d="M81.5922 58.2099C81.1015 58.2099 80.6463 58.1301 80.2265 57.9705C79.8127 57.8109 79.452 57.5862 79.1446 57.2965C78.8431 57.0068 78.6066 56.6669 78.4352 56.2767C78.2696 55.8865 78.1869 55.4608 78.1869 54.9997C78.1869 54.5385 78.2696 54.1129 78.4352 53.7227C78.6066 53.3325 78.8461 52.9925 79.1535 52.7028C79.4609 52.4131 79.8215 52.1885 80.2354 52.0289C80.6492 51.8692 81.0985 51.7894 81.5833 51.7894C82.074 51.7894 82.5233 51.8692 82.9313 52.0289C83.3451 52.1885 83.7028 52.4131 84.0043 52.7028C84.3117 52.9925 84.5512 53.3325 84.7226 53.7227C84.8941 54.107 84.9798 54.5326 84.9798 54.9997C84.9798 55.4608 84.8941 55.8894 84.7226 56.2855C84.5512 56.6757 84.3117 57.0157 84.0043 57.3054C83.7028 57.5892 83.3451 57.8109 82.9313 57.9705C82.5233 58.1301 82.077 58.2099 81.5922 58.2099ZM81.5833 56.9861C81.8612 56.9861 82.1154 56.9388 82.346 56.8442C82.5825 56.7496 82.7894 56.6137 82.9668 56.4363C83.1441 56.2589 83.2801 56.0491 83.3747 55.8067C83.4752 55.5643 83.5254 55.2953 83.5254 54.9997C83.5254 54.7041 83.4752 54.4351 83.3747 54.1927C83.2801 53.9503 83.1441 53.7404 82.9668 53.563C82.7953 53.3857 82.5913 53.2497 82.3549 53.1551C82.1184 53.0605 81.8612 53.0132 81.5833 53.0132C81.3055 53.0132 81.0483 53.0605 80.8118 53.1551C80.5812 53.2497 80.3773 53.3857 80.1999 53.563C80.0226 53.7404 79.8836 53.9503 79.7831 54.1927C79.6885 54.4351 79.6412 54.7041 79.6412 54.9997C79.6412 55.2894 79.6885 55.5584 79.7831 55.8067C79.8836 56.0491 80.0196 56.2589 80.191 56.4363C80.3684 56.6137 80.5753 56.7496 80.8118 56.8442C81.0483 56.9388 81.3055 56.9861 81.5833 56.9861Z" fill="white"/>
<path d="M86.0595 58.1035V51.8958H87.2478L90.9103 56.3654H90.3339V51.8958H91.7528V58.1035H90.5733L86.902 53.634H87.4784V58.1035H86.0595Z" fill="white"/>
<path d="M95.2612 58.2099C94.7645 58.2099 94.2886 58.1449 93.8334 58.0148C93.3782 57.8788 93.0116 57.7044 92.7338 57.4916L93.2215 56.4097C93.4875 56.5989 93.8009 56.7556 94.1615 56.8797C94.5281 56.9979 94.8976 57.0571 95.27 57.0571C95.5538 57.0571 95.7814 57.0305 95.9529 56.9773C96.1302 56.9181 96.2603 56.8383 96.3431 56.7378C96.4258 56.6373 96.4672 56.522 96.4672 56.392C96.4672 56.2264 96.4022 56.0964 96.2721 56.0018C96.1421 55.9013 95.9706 55.8214 95.7578 55.7623C95.5449 55.6973 95.3085 55.6382 95.0483 55.585C94.7941 55.5258 94.5369 55.4549 94.2768 55.3721C94.0226 55.2894 93.7891 55.1829 93.5762 55.0529C93.3634 54.9228 93.189 54.7514 93.053 54.5385C92.923 54.3257 92.8579 54.0537 92.8579 53.7227C92.8579 53.3679 92.9525 53.0457 93.1417 52.756C93.3368 52.4604 93.6265 52.2269 94.0108 52.0555C94.401 51.8781 94.8887 51.7894 95.474 51.7894C95.8642 51.7894 96.2485 51.8367 96.6268 51.9313C97.0052 52.02 97.3393 52.156 97.6289 52.3392L97.1855 53.43C96.8959 53.2645 96.6062 53.1433 96.3165 53.0664C96.0268 52.9837 95.743 52.9423 95.4651 52.9423C95.1873 52.9423 94.9596 52.9748 94.7823 53.0398C94.6049 53.1049 94.4778 53.1906 94.401 53.297C94.3241 53.3975 94.2857 53.5157 94.2857 53.6517C94.2857 53.8113 94.3507 53.9414 94.4808 54.0419C94.6108 54.1365 94.7823 54.2134 94.9951 54.2725C95.208 54.3316 95.4415 54.3907 95.6957 54.4499C95.9558 54.509 96.213 54.577 96.4672 54.6538C96.7274 54.7307 96.9638 54.8341 97.1767 54.9642C97.3895 55.0943 97.561 55.2657 97.691 55.4785C97.827 55.6914 97.895 55.9604 97.895 56.2855C97.895 56.6344 97.7974 56.9536 97.6023 57.2433C97.4072 57.533 97.1146 57.7665 96.7244 57.9439C96.3401 58.1212 95.8524 58.2099 95.2612 58.2099Z" fill="white"/>
<path d="M101.635 58.2099C100.754 58.2099 100.065 57.9646 99.5684 57.4739C99.0717 56.9832 98.8234 56.2826 98.8234 55.3721V51.8958H100.26V55.3189C100.26 55.9101 100.381 56.3358 100.624 56.5959C100.866 56.8561 101.206 56.9861 101.643 56.9861C102.081 56.9861 102.421 56.8561 102.663 56.5959C102.906 56.3358 103.027 55.9101 103.027 55.3189V51.8958H104.446V55.3721C104.446 56.2826 104.197 56.9832 103.701 57.4739C103.204 57.9646 102.516 58.2099 101.635 58.2099Z" fill="white"/>
<path d="M105.865 58.1035V51.8958H107.302V56.9329H110.415V58.1035H105.865Z" fill="white"/>
<path d="M111.923 58.1035V53.0664H109.937V51.8958H115.346V53.0664H113.36V58.1035H111.923Z" fill="white"/>
<path d="M116.119 58.1035V51.8958H117.556V58.1035H116.119Z" fill="white"/>
<path d="M119.029 58.1035V51.8958H120.217L123.88 56.3654H123.303V51.8958H124.722V58.1035H123.543L119.871 53.634H120.448V58.1035H119.029Z" fill="white"/>
<path d="M129.188 58.2099C128.698 58.2099 128.245 58.1331 127.832 57.9793C127.424 57.8197 127.066 57.5951 126.759 57.3054C126.457 57.0157 126.221 56.6757 126.049 56.2855C125.884 55.8953 125.801 55.4667 125.801 54.9997C125.801 54.5326 125.884 54.104 126.049 53.7138C126.221 53.3236 126.46 52.9837 126.767 52.694C127.075 52.4043 127.435 52.1826 127.849 52.0289C128.263 51.8692 128.718 51.7894 129.215 51.7894C129.765 51.7894 130.258 51.8811 130.696 52.0643C131.139 52.2476 131.512 52.5137 131.813 52.8625L130.891 53.7138C130.666 53.4773 130.421 53.3029 130.155 53.1906C129.889 53.0723 129.599 53.0132 129.286 53.0132C128.984 53.0132 128.71 53.0605 128.461 53.1551C128.213 53.2497 127.997 53.3857 127.814 53.563C127.637 53.7404 127.498 53.9503 127.397 54.1927C127.302 54.4351 127.255 54.7041 127.255 54.9997C127.255 55.2894 127.302 55.5554 127.397 55.7978C127.498 56.0402 127.637 56.253 127.814 56.4363C127.997 56.6137 128.21 56.7496 128.452 56.8442C128.701 56.9388 128.973 56.9861 129.268 56.9861C129.552 56.9861 129.827 56.9418 130.093 56.8531C130.365 56.7585 130.628 56.6018 130.882 56.3831L131.698 57.4207C131.361 57.6749 130.968 57.87 130.519 58.006C130.075 58.1419 129.632 58.2099 129.188 58.2099ZM130.386 57.2344V54.9021H131.698V57.4207L130.386 57.2344Z" fill="white"/>
</svg>
