<svg width="39" height="48" viewBox="0 0 39 48" fill="none" xmlns="http://www.w3.org/2000/svg">
<path d="M20.1553 0.737244C7.44695 0.737244 0.688477 8.88103 0.688477 17.7609C0.688477 21.8792 2.9896 27.0147 6.67314 28.6435C7.23249 28.8956 7.53679 28.7884 7.66141 28.2696C7.77154 27.8755 8.25553 25.9772 8.49028 25.0817C8.56273 24.7947 8.52506 24.5455 8.29321 24.276C7.07019 22.8617 6.09931 20.2852 6.09931 17.8682C6.09931 11.6748 11.0233 5.66119 19.4018 5.66119C26.6472 5.66119 31.716 10.3678 31.716 17.1002C31.716 24.7078 27.6905 29.9708 22.4593 29.9708C19.5641 29.9708 17.4079 27.6987 18.0918 24.8875C18.9178 21.5401 20.5379 17.9406 20.5379 15.5265C20.5379 13.3616 19.3148 11.5705 16.8166 11.5705C13.8692 11.5705 11.4783 14.4889 11.4783 18.4072C11.4783 20.8967 12.3593 22.5777 12.3593 22.5777C12.3593 22.5777 9.44377 34.3557 8.90182 36.5554C7.986 40.2795 9.02644 46.3106 9.11628 46.8293C9.17134 47.1162 9.49304 47.2061 9.67272 46.9713C9.95964 46.5946 13.4838 41.5663 14.472 37.932C14.8314 36.6076 16.3066 31.2373 16.3066 31.2373C17.2775 32.9907 20.08 34.4601 23.065 34.4601C31.945 34.4601 38.3615 26.6553 38.3615 16.9698C38.3296 7.6841 30.3829 0.737244 20.1553 0.737244Z" fill="black"/>
</svg>
