<svg width="51" height="42" viewBox="0 0 51 42" fill="none" xmlns="http://www.w3.org/2000/svg">
<path d="M50.7536 5.46054C48.8871 6.26935 46.9584 6.8293 44.9052 7.07817C47.0206 5.83384 48.6382 3.84291 49.3848 1.41646C47.3939 2.59857 45.2163 3.40739 42.9143 3.90512C41.0478 1.91419 38.3725 0.669861 35.4483 0.669861C29.7866 0.669861 25.2448 5.27389 25.2448 10.8734C25.2448 11.6822 25.307 12.4288 25.4937 13.1754C17.0322 12.8021 9.56623 8.6958 4.52669 2.53636C0.91813 9.00688 4.96221 14.3575 7.63752 16.1618C6.01989 16.1618 4.40226 15.6641 3.03349 14.9175C3.03349 19.957 6.57984 24.1255 11.1839 25.0588C10.1884 25.3698 7.9486 25.5565 6.57984 25.2454C7.88638 29.2895 11.6816 32.2759 16.099 32.3381C12.6148 35.0756 7.51308 37.2532 0.980347 36.5688C5.52216 39.493 10.8728 41.1728 16.6589 41.1728C35.4483 41.1728 45.6518 25.6187 45.6518 12.1799C45.6518 11.7444 45.6518 11.3089 45.5896 10.8734C47.705 9.31796 49.447 7.51368 50.7536 5.46054Z" fill="black"/>
</svg>
