<svg width="353" height="84" viewBox="0 0 353 84" fill="none" xmlns="http://www.w3.org/2000/svg">
<path d="M1.8147 -8.93066C16.349 15.141 32.3255 39.0162 54.994 56.1733C63.2745 62.4406 71.9761 67.847 81.4806 72.0643C92.5959 76.9963 105.188 82.6887 117.643 81.9926C135.649 80.9862 154.421 68.982 170.117 61.3204C211.252 41.242 249.029 14.6151 290.974 -3.77883C307.68 -11.1048 324.954 -17.6233 342.439 -22.8467C349.779 -25.0397 356.459 -26.4175 364.087 -26.0444C386.66 -24.9406 408.001 -21.4531 428.933 -12.6228C455.249 -1.52133 481.361 15.3729 501.759 35.3857C508.554 42.0524 516.658 48.7428 522.395 56.3214" stroke="#3A3611" stroke-width="2" stroke-linecap="round"/>
</svg>
