<svg width="476" height="560" viewBox="0 0 476 560" fill="none" xmlns="http://www.w3.org/2000/svg">
<path d="M5.84118 560.932C5.15831 545.909 1.17543 532.166 1.98664 516.753C3.46217 488.718 23.3042 458.577 45.869 442.331C66.5546 427.437 91.879 420.963 115.844 413.57C156.719 400.959 197.932 392.038 237.558 375.469C251.233 369.752 264.202 362.768 276.4 354.343C302.751 336.142 318.918 306.798 334.07 279.328C347.625 254.752 357.904 229.247 366.759 202.682C377.179 171.423 390.319 141.428 404.415 111.656C419.229 80.3679 434.885 47.1114 462.159 24.5584C473.278 15.3638 485.753 8.97949 498.184 1.87598" stroke="#3A3611" stroke-width="2" stroke-linecap="round"/>
</svg>
