<svg width="170" height="158" viewBox="0 0 170 158" fill="none" xmlns="http://www.w3.org/2000/svg">
<path d="M3.5647 0.148682C1.94964 0.148682 0.613037 1.48528 0.613037 3.10034C0.613037 4.7154 1.94964 6.052 3.5647 6.052C5.17976 6.052 6.51636 4.7154 6.51636 3.10034C6.51636 1.48528 5.23545 0.148682 3.5647 0.148682Z" fill="#F3C977"/>
<path d="M22.468 6.05202C24.0982 6.05202 25.4197 4.73052 25.4197 3.10036C25.4197 1.4702 24.0982 0.148697 22.468 0.148697C20.8379 0.148697 19.5164 1.4702 19.5164 3.10036C19.5164 4.73052 20.8379 6.05202 22.468 6.05202Z" fill="#F3C977"/>
<path d="M41.3713 0.148697C39.7563 0.148697 38.4197 1.4853 38.4197 3.10036C38.4197 4.71542 39.7563 6.05202 41.3713 6.05202C42.9864 6.05202 44.323 4.71542 44.323 3.10036C44.323 1.4853 43.0421 0.148697 41.3713 0.148697Z" fill="#F3C977"/>
<path d="M60.2747 6.05202C61.9048 6.05202 63.2263 4.73052 63.2263 3.10036C63.2263 1.4702 61.9048 0.148697 60.2747 0.148697C58.6445 0.148697 57.323 1.4702 57.323 3.10036C57.323 4.73052 58.6445 6.05202 60.2747 6.05202Z" fill="#F3C977"/>
<path d="M79.178 6.05202C80.8081 6.05202 82.1296 4.73052 82.1296 3.10036C82.1296 1.4702 80.8081 0.148697 79.178 0.148697C77.5478 0.148697 76.2263 1.4702 76.2263 3.10036C76.2263 4.73052 77.5478 6.05202 79.178 6.05202Z" fill="#F3C977"/>
<path d="M98.0813 6.05202C99.7115 6.05202 101.033 4.73052 101.033 3.10036C101.033 1.4702 99.7115 0.148697 98.0813 0.148697C96.4511 0.148697 95.1296 1.4702 95.1296 3.10036C95.1296 4.73052 96.4511 6.05202 98.0813 6.05202Z" fill="#F3C977"/>
<path d="M116.985 6.05202C118.615 6.05202 119.936 4.73052 119.936 3.10036C119.936 1.4702 118.615 0.148697 116.985 0.148697C115.354 0.148697 114.033 1.4702 114.033 3.10036C114.033 4.73052 115.354 6.05202 116.985 6.05202Z" fill="#F3C977"/>
<path d="M135.888 6.05202C137.518 6.05202 138.84 4.73052 138.84 3.10036C138.84 1.4702 137.518 0.148697 135.888 0.148697C134.258 0.148697 132.936 1.4702 132.936 3.10036C132.936 4.73052 134.258 6.05202 135.888 6.05202Z" fill="#F3C977"/>
<path d="M154.791 0.148697C153.176 0.148697 151.84 1.4853 151.84 3.10036C151.84 4.71542 153.176 6.05202 154.791 6.05202C156.406 6.05202 157.743 4.71542 157.743 3.10036C157.743 1.4853 156.462 0.148697 154.791 0.148697Z" fill="#F3C977"/>
<path d="M3.5647 19.052C1.94964 19.052 0.613037 20.3886 0.613037 22.0037C0.613037 23.6187 1.94964 24.9553 3.5647 24.9553C5.17976 24.9553 6.51636 23.6187 6.51636 22.0037C6.51636 20.3886 5.23545 19.052 3.5647 19.052Z" fill="#F3C977"/>
<path d="M22.468 24.9553C24.0982 24.9553 25.4197 23.6338 25.4197 22.0037C25.4197 20.3735 24.0982 19.052 22.468 19.052C20.8379 19.052 19.5164 20.3735 19.5164 22.0037C19.5164 23.6338 20.8379 24.9553 22.468 24.9553Z" fill="#F3C977"/>
<path d="M41.3713 19.052C39.7563 19.052 38.4197 20.3886 38.4197 22.0037C38.4197 23.6187 39.7563 24.9553 41.3713 24.9553C42.9864 24.9553 44.323 23.6187 44.323 22.0037C44.323 20.3886 43.0421 19.052 41.3713 19.052Z" fill="#F3C977"/>
<path d="M60.2747 24.9553C61.9048 24.9553 63.2263 23.6338 63.2263 22.0037C63.2263 20.3735 61.9048 19.052 60.2747 19.052C58.6445 19.052 57.323 20.3735 57.323 22.0037C57.323 23.6338 58.6445 24.9553 60.2747 24.9553Z" fill="#F3C977"/>
<path d="M79.178 24.9553C80.8081 24.9553 82.1296 23.6338 82.1296 22.0037C82.1296 20.3735 80.8081 19.052 79.178 19.052C77.5478 19.052 76.2263 20.3735 76.2263 22.0037C76.2263 23.6338 77.5478 24.9553 79.178 24.9553Z" fill="#F3C977"/>
<path d="M98.0813 24.9553C99.7115 24.9553 101.033 23.6338 101.033 22.0037C101.033 20.3735 99.7115 19.052 98.0813 19.052C96.4511 19.052 95.1296 20.3735 95.1296 22.0037C95.1296 23.6338 96.4511 24.9553 98.0813 24.9553Z" fill="#F3C977"/>
<path d="M116.985 24.9553C118.615 24.9553 119.936 23.6338 119.936 22.0037C119.936 20.3735 118.615 19.052 116.985 19.052C115.354 19.052 114.033 20.3735 114.033 22.0037C114.033 23.6338 115.354 24.9553 116.985 24.9553Z" fill="#F3C977"/>
<path d="M135.888 24.9553C137.518 24.9553 138.84 23.6338 138.84 22.0037C138.84 20.3735 137.518 19.052 135.888 19.052C134.258 19.052 132.936 20.3735 132.936 22.0037C132.936 23.6338 134.258 24.9553 135.888 24.9553Z" fill="#F3C977"/>
<path d="M154.791 19.052C153.176 19.052 151.84 20.3886 151.84 22.0037C151.84 23.6187 153.176 24.9553 154.791 24.9553C156.406 24.9553 157.743 23.6187 157.743 22.0037C157.743 20.3886 156.462 19.052 154.791 19.052Z" fill="#F3C977"/>
<path d="M3.5647 37.9553C1.94964 37.9553 0.613037 39.2919 0.613037 40.907C0.613037 42.5221 1.94964 43.8587 3.5647 43.8587C5.17976 43.8587 6.51636 42.5221 6.51636 40.907C6.51636 39.2919 5.23545 37.9553 3.5647 37.9553Z" fill="#F3C977"/>
<path d="M22.468 43.8587C24.0982 43.8587 25.4197 42.5372 25.4197 40.907C25.4197 39.2768 24.0982 37.9553 22.468 37.9553C20.8379 37.9553 19.5164 39.2768 19.5164 40.907C19.5164 42.5372 20.8379 43.8587 22.468 43.8587Z" fill="#F3C977"/>
<path d="M41.3713 37.9553C39.7563 37.9553 38.4197 39.2919 38.4197 40.907C38.4197 42.5221 39.7563 43.8587 41.3713 43.8587C42.9864 43.8587 44.323 42.5221 44.323 40.907C44.323 39.2919 43.0421 37.9553 41.3713 37.9553Z" fill="#F3C977"/>
<path d="M60.2747 43.8587C61.9048 43.8587 63.2263 42.5372 63.2263 40.907C63.2263 39.2768 61.9048 37.9553 60.2747 37.9553C58.6445 37.9553 57.323 39.2768 57.323 40.907C57.323 42.5372 58.6445 43.8587 60.2747 43.8587Z" fill="#F3C977"/>
<path d="M79.178 43.8587C80.8081 43.8587 82.1296 42.5372 82.1296 40.907C82.1296 39.2768 80.8081 37.9553 79.178 37.9553C77.5478 37.9553 76.2263 39.2768 76.2263 40.907C76.2263 42.5372 77.5478 43.8587 79.178 43.8587Z" fill="#F3C977"/>
<path d="M98.0813 43.8587C99.7115 43.8587 101.033 42.5372 101.033 40.907C101.033 39.2768 99.7115 37.9553 98.0813 37.9553C96.4511 37.9553 95.1296 39.2768 95.1296 40.907C95.1296 42.5372 96.4511 43.8587 98.0813 43.8587Z" fill="#F3C977"/>
<path d="M116.985 43.8587C118.615 43.8587 119.936 42.5372 119.936 40.907C119.936 39.2768 118.615 37.9553 116.985 37.9553C115.354 37.9553 114.033 39.2768 114.033 40.907C114.033 42.5372 115.354 43.8587 116.985 43.8587Z" fill="#F3C977"/>
<path d="M135.888 43.8587C137.518 43.8587 138.84 42.5372 138.84 40.907C138.84 39.2768 137.518 37.9553 135.888 37.9553C134.258 37.9553 132.936 39.2768 132.936 40.907C132.936 42.5372 134.258 43.8587 135.888 43.8587Z" fill="#F3C977"/>
<path d="M154.791 37.9553C153.176 37.9553 151.84 39.2919 151.84 40.907C151.84 42.5221 153.176 43.8587 154.791 43.8587C156.406 43.8587 157.743 42.5221 157.743 40.907C157.743 39.2919 156.462 37.9553 154.791 37.9553Z" fill="#F3C977"/>
<path d="M3.5647 56.8587C1.94964 56.8587 0.613037 58.1953 0.613037 59.8103C0.613037 61.4254 1.94964 62.762 3.5647 62.762C5.17976 62.762 6.51636 61.4254 6.51636 59.8103C6.51636 58.1953 5.23545 56.8587 3.5647 56.8587Z" fill="#F3C977"/>
<path d="M22.468 62.8177C24.0982 62.8177 25.4197 61.4962 25.4197 59.866C25.4197 58.2359 24.0982 56.9144 22.468 56.9144C20.8379 56.9144 19.5164 58.2359 19.5164 59.866C19.5164 61.4962 20.8379 62.8177 22.468 62.8177Z" fill="#F3C977"/>
<path d="M41.3713 56.8587C39.7563 56.8587 38.4197 58.1953 38.4197 59.8103C38.4197 61.4254 39.7563 62.762 41.3713 62.762C42.9864 62.762 44.323 61.4254 44.323 59.8103C44.323 58.1953 43.0421 56.8587 41.3713 56.8587Z" fill="#F3C977"/>
<path d="M60.2747 62.8177C61.9048 62.8177 63.2263 61.4962 63.2263 59.866C63.2263 58.2359 61.9048 56.9144 60.2747 56.9144C58.6445 56.9144 57.323 58.2359 57.323 59.866C57.323 61.4962 58.6445 62.8177 60.2747 62.8177Z" fill="#F3C977"/>
<path d="M79.178 62.8177C80.8081 62.8177 82.1296 61.4962 82.1296 59.866C82.1296 58.2359 80.8081 56.9144 79.178 56.9144C77.5478 56.9144 76.2263 58.2359 76.2263 59.866C76.2263 61.4962 77.5478 62.8177 79.178 62.8177Z" fill="#F3C977"/>
<path d="M98.0813 62.8177C99.7115 62.8177 101.033 61.4962 101.033 59.866C101.033 58.2359 99.7115 56.9144 98.0813 56.9144C96.4511 56.9144 95.1296 58.2359 95.1296 59.866C95.1296 61.4962 96.4511 62.8177 98.0813 62.8177Z" fill="#F3C977"/>
<path d="M116.985 62.8177C118.615 62.8177 119.936 61.4962 119.936 59.866C119.936 58.2359 118.615 56.9144 116.985 56.9144C115.354 56.9144 114.033 58.2359 114.033 59.866C114.033 61.4962 115.354 62.8177 116.985 62.8177Z" fill="#F3C977"/>
<path d="M135.888 62.8177C137.518 62.8177 138.84 61.4962 138.84 59.866C138.84 58.2359 137.518 56.9144 135.888 56.9144C134.258 56.9144 132.936 58.2359 132.936 59.866C132.936 61.4962 134.258 62.8177 135.888 62.8177Z" fill="#F3C977"/>
<path d="M154.791 56.8587C153.176 56.8587 151.84 58.1953 151.84 59.8103C151.84 61.4254 153.176 62.762 154.791 62.762C156.406 62.762 157.743 61.4254 157.743 59.8103C157.743 58.1953 156.462 56.8587 154.791 56.8587Z" fill="#F3C977"/>
<path d="M3.5647 75.8177C1.94964 75.8177 0.613037 77.1543 0.613037 78.7693C0.613037 80.3844 1.94964 81.721 3.5647 81.721C5.17976 81.721 6.51636 80.3844 6.51636 78.7693C6.51636 77.0986 5.23545 75.8177 3.5647 75.8177Z" fill="#F3C977"/>
<path d="M22.468 81.721C24.0982 81.721 25.4197 80.3995 25.4197 78.7693C25.4197 77.1392 24.0982 75.8177 22.468 75.8177C20.8379 75.8177 19.5164 77.1392 19.5164 78.7693C19.5164 80.3995 20.8379 81.721 22.468 81.721Z" fill="#F3C977"/>
<path d="M41.3713 75.8177C39.7563 75.8177 38.4197 77.1543 38.4197 78.7693C38.4197 80.3844 39.7563 81.721 41.3713 81.721C42.9864 81.721 44.323 80.3844 44.323 78.7693C44.323 77.0986 43.0421 75.8177 41.3713 75.8177Z" fill="#F3C977"/>
<path d="M60.2747 81.721C61.9048 81.721 63.2263 80.3995 63.2263 78.7693C63.2263 77.1392 61.9048 75.8177 60.2747 75.8177C58.6445 75.8177 57.323 77.1392 57.323 78.7693C57.323 80.3995 58.6445 81.721 60.2747 81.721Z" fill="#F3C977"/>
<path d="M79.178 81.721C80.8081 81.721 82.1296 80.3995 82.1296 78.7693C82.1296 77.1392 80.8081 75.8177 79.178 75.8177C77.5478 75.8177 76.2263 77.1392 76.2263 78.7693C76.2263 80.3995 77.5478 81.721 79.178 81.721Z" fill="#F3C977"/>
<path d="M98.0813 81.721C99.7115 81.721 101.033 80.3995 101.033 78.7693C101.033 77.1392 99.7115 75.8177 98.0813 75.8177C96.4511 75.8177 95.1296 77.1392 95.1296 78.7693C95.1296 80.3995 96.4511 81.721 98.0813 81.721Z" fill="#F3C977"/>
<path d="M116.985 81.721C118.615 81.721 119.936 80.3995 119.936 78.7693C119.936 77.1392 118.615 75.8177 116.985 75.8177C115.354 75.8177 114.033 77.1392 114.033 78.7693C114.033 80.3995 115.354 81.721 116.985 81.721Z" fill="#F3C977"/>
<path d="M135.888 81.721C137.518 81.721 138.84 80.3995 138.84 78.7693C138.84 77.1392 137.518 75.8177 135.888 75.8177C134.258 75.8177 132.936 77.1392 132.936 78.7693C132.936 80.3995 134.258 81.721 135.888 81.721Z" fill="#F3C977"/>
<path d="M154.791 75.8177C153.176 75.8177 151.84 77.1543 151.84 78.7693C151.84 80.3844 153.176 81.721 154.791 81.721C156.406 81.721 157.743 80.3844 157.743 78.7693C157.743 77.0986 156.462 75.8177 154.791 75.8177Z" fill="#F3C977"/>
<path d="M3.5647 94.721C1.94964 94.721 0.613037 96.0576 0.613037 97.6727C0.613037 99.2877 1.94964 100.624 3.5647 100.624C5.17976 100.624 6.51636 99.2877 6.51636 97.6727C6.51636 96.0019 5.23545 94.721 3.5647 94.721Z" fill="#F3C977"/>
<path d="M22.468 100.624C24.0982 100.624 25.4197 99.3028 25.4197 97.6727C25.4197 96.0425 24.0982 94.721 22.468 94.721C20.8379 94.721 19.5164 96.0425 19.5164 97.6727C19.5164 99.3028 20.8379 100.624 22.468 100.624Z" fill="#F3C977"/>
<path d="M41.3713 94.721C39.7563 94.721 38.4197 96.0576 38.4197 97.6727C38.4197 99.2877 39.7563 100.624 41.3713 100.624C42.9864 100.624 44.323 99.2877 44.323 97.6727C44.323 96.0019 43.0421 94.721 41.3713 94.721Z" fill="#F3C977"/>
<path d="M60.2747 100.624C61.9048 100.624 63.2263 99.3028 63.2263 97.6727C63.2263 96.0425 61.9048 94.721 60.2747 94.721C58.6445 94.721 57.323 96.0425 57.323 97.6727C57.323 99.3028 58.6445 100.624 60.2747 100.624Z" fill="#F3C977"/>
<path d="M79.178 100.624C80.8081 100.624 82.1296 99.3028 82.1296 97.6727C82.1296 96.0425 80.8081 94.721 79.178 94.721C77.5478 94.721 76.2263 96.0425 76.2263 97.6727C76.2263 99.3028 77.5478 100.624 79.178 100.624Z" fill="#F3C977"/>
<path d="M98.0813 100.624C99.7115 100.624 101.033 99.3028 101.033 97.6727C101.033 96.0425 99.7115 94.721 98.0813 94.721C96.4511 94.721 95.1296 96.0425 95.1296 97.6727C95.1296 99.3028 96.4511 100.624 98.0813 100.624Z" fill="#F3C977"/>
<path d="M116.985 100.624C118.615 100.624 119.936 99.3028 119.936 97.6727C119.936 96.0425 118.615 94.721 116.985 94.721C115.354 94.721 114.033 96.0425 114.033 97.6727C114.033 99.3028 115.354 100.624 116.985 100.624Z" fill="#F3C977"/>
<path d="M135.888 100.624C137.518 100.624 138.84 99.3028 138.84 97.6727C138.84 96.0425 137.518 94.721 135.888 94.721C134.258 94.721 132.936 96.0425 132.936 97.6727C132.936 99.3028 134.258 100.624 135.888 100.624Z" fill="#F3C977"/>
<path d="M154.791 94.721C153.176 94.721 151.84 96.0576 151.84 97.6727C151.84 99.2877 153.176 100.624 154.791 100.624C156.406 100.624 157.743 99.2877 157.743 97.6727C157.743 96.0019 156.462 94.721 154.791 94.721Z" fill="#F3C977"/>
<path d="M3.5647 113.624C1.94964 113.624 0.613037 114.961 0.613037 116.576C0.613037 118.191 1.94964 119.528 3.5647 119.528C5.17976 119.528 6.51636 118.191 6.51636 116.576C6.51636 114.961 5.23545 113.624 3.5647 113.624Z" fill="#F3C977"/>
<path d="M22.468 119.528C24.0982 119.528 25.4197 118.206 25.4197 116.576C25.4197 114.946 24.0982 113.624 22.468 113.624C20.8379 113.624 19.5164 114.946 19.5164 116.576C19.5164 118.206 20.8379 119.528 22.468 119.528Z" fill="#F3C977"/>
<path d="M41.3713 113.624C39.7563 113.624 38.4197 114.961 38.4197 116.576C38.4197 118.191 39.7563 119.528 41.3713 119.528C42.9864 119.528 44.323 118.191 44.323 116.576C44.323 114.961 43.0421 113.624 41.3713 113.624Z" fill="#F3C977"/>
<path d="M60.2747 119.528C61.9048 119.528 63.2263 118.206 63.2263 116.576C63.2263 114.946 61.9048 113.624 60.2747 113.624C58.6445 113.624 57.323 114.946 57.323 116.576C57.323 118.206 58.6445 119.528 60.2747 119.528Z" fill="#F3C977"/>
<path d="M79.178 119.528C80.8081 119.528 82.1296 118.206 82.1296 116.576C82.1296 114.946 80.8081 113.624 79.178 113.624C77.5478 113.624 76.2263 114.946 76.2263 116.576C76.2263 118.206 77.5478 119.528 79.178 119.528Z" fill="#F3C977"/>
<path d="M98.0813 119.528C99.7115 119.528 101.033 118.206 101.033 116.576C101.033 114.946 99.7115 113.624 98.0813 113.624C96.4511 113.624 95.1296 114.946 95.1296 116.576C95.1296 118.206 96.4511 119.528 98.0813 119.528Z" fill="#F3C977"/>
<path d="M116.985 119.528C118.615 119.528 119.936 118.206 119.936 116.576C119.936 114.946 118.615 113.624 116.985 113.624C115.354 113.624 114.033 114.946 114.033 116.576C114.033 118.206 115.354 119.528 116.985 119.528Z" fill="#F3C977"/>
<path d="M135.888 119.528C137.518 119.528 138.84 118.206 138.84 116.576C138.84 114.946 137.518 113.624 135.888 113.624C134.258 113.624 132.936 114.946 132.936 116.576C132.936 118.206 134.258 119.528 135.888 119.528Z" fill="#F3C977"/>
<path d="M154.791 113.624C153.176 113.624 151.84 114.961 151.84 116.576C151.84 118.191 153.176 119.528 154.791 119.528C156.406 119.528 157.743 118.191 157.743 116.576C157.743 114.961 156.462 113.624 154.791 113.624Z" fill="#F3C977"/>
<path d="M3.5647 132.528C1.94964 132.528 0.613037 133.864 0.613037 135.479C0.613037 137.094 1.94964 138.431 3.5647 138.431C5.17976 138.431 6.51636 137.094 6.51636 135.479C6.51636 133.864 5.23545 132.528 3.5647 132.528Z" fill="#F3C977"/>
<path d="M22.468 138.431C24.0982 138.431 25.4197 137.109 25.4197 135.479C25.4197 133.849 24.0982 132.528 22.468 132.528C20.8379 132.528 19.5164 133.849 19.5164 135.479C19.5164 137.109 20.8379 138.431 22.468 138.431Z" fill="#F3C977"/>
<path d="M41.3713 132.528C39.7563 132.528 38.4197 133.864 38.4197 135.479C38.4197 137.094 39.7563 138.431 41.3713 138.431C42.9864 138.431 44.323 137.094 44.323 135.479C44.323 133.864 43.0421 132.528 41.3713 132.528Z" fill="#F3C977"/>
<path d="M60.2747 138.431C61.9048 138.431 63.2263 137.109 63.2263 135.479C63.2263 133.849 61.9048 132.528 60.2747 132.528C58.6445 132.528 57.323 133.849 57.323 135.479C57.323 137.109 58.6445 138.431 60.2747 138.431Z" fill="#F3C977"/>
<path d="M79.178 138.431C80.8081 138.431 82.1296 137.109 82.1296 135.479C82.1296 133.849 80.8081 132.528 79.178 132.528C77.5478 132.528 76.2263 133.849 76.2263 135.479C76.2263 137.109 77.5478 138.431 79.178 138.431Z" fill="#F3C977"/>
<path d="M98.0813 138.431C99.7115 138.431 101.033 137.109 101.033 135.479C101.033 133.849 99.7115 132.528 98.0813 132.528C96.4511 132.528 95.1296 133.849 95.1296 135.479C95.1296 137.109 96.4511 138.431 98.0813 138.431Z" fill="#F3C977"/>
<path d="M116.985 138.431C118.615 138.431 119.936 137.109 119.936 135.479C119.936 133.849 118.615 132.528 116.985 132.528C115.354 132.528 114.033 133.849 114.033 135.479C114.033 137.109 115.354 138.431 116.985 138.431Z" fill="#F3C977"/>
<path d="M135.888 138.431C137.518 138.431 138.84 137.109 138.84 135.479C138.84 133.849 137.518 132.528 135.888 132.528C134.258 132.528 132.936 133.849 132.936 135.479C132.936 137.109 134.258 138.431 135.888 138.431Z" fill="#F3C977"/>
<path d="M154.791 132.528C153.176 132.528 151.84 133.864 151.84 135.479C151.84 137.094 153.176 138.431 154.791 138.431C156.406 138.431 157.743 137.094 157.743 135.479C157.743 133.864 156.462 132.528 154.791 132.528Z" fill="#F3C977"/>
<path d="M3.5647 151.431C1.94964 151.431 0.613037 152.768 0.613037 154.383C0.613037 155.998 1.94964 157.334 3.5647 157.334C5.17976 157.334 6.51636 155.998 6.51636 154.383C6.51636 152.768 5.23545 151.431 3.5647 151.431Z" fill="#F3C977"/>
<path d="M22.468 157.334C24.0982 157.334 25.4197 156.013 25.4197 154.383C25.4197 152.752 24.0982 151.431 22.468 151.431C20.8379 151.431 19.5164 152.752 19.5164 154.383C19.5164 156.013 20.8379 157.334 22.468 157.334Z" fill="#F3C977"/>
<path d="M41.3713 151.431C39.7563 151.431 38.4197 152.768 38.4197 154.383C38.4197 155.998 39.7563 157.334 41.3713 157.334C42.9864 157.334 44.323 155.998 44.323 154.383C44.323 152.768 43.0421 151.431 41.3713 151.431Z" fill="#F3C977"/>
<path d="M60.2747 157.334C61.9048 157.334 63.2263 156.013 63.2263 154.383C63.2263 152.752 61.9048 151.431 60.2747 151.431C58.6445 151.431 57.323 152.752 57.323 154.383C57.323 156.013 58.6445 157.334 60.2747 157.334Z" fill="#F3C977"/>
<path d="M79.178 157.334C80.8081 157.334 82.1296 156.013 82.1296 154.383C82.1296 152.752 80.8081 151.431 79.178 151.431C77.5478 151.431 76.2263 152.752 76.2263 154.383C76.2263 156.013 77.5478 157.334 79.178 157.334Z" fill="#F3C977"/>
<path d="M98.0813 157.334C99.7115 157.334 101.033 156.013 101.033 154.383C101.033 152.752 99.7115 151.431 98.0813 151.431C96.4511 151.431 95.1296 152.752 95.1296 154.383C95.1296 156.013 96.4511 157.334 98.0813 157.334Z" fill="#F3C977"/>
<path d="M116.985 157.334C118.615 157.334 119.936 156.013 119.936 154.383C119.936 152.752 118.615 151.431 116.985 151.431C115.354 151.431 114.033 152.752 114.033 154.383C114.033 156.013 115.354 157.334 116.985 157.334Z" fill="#F3C977"/>
<path d="M135.888 157.334C137.518 157.334 138.84 156.013 138.84 154.383C138.84 152.752 137.518 151.431 135.888 151.431C134.258 151.431 132.936 152.752 132.936 154.383C132.936 156.013 134.258 157.334 135.888 157.334Z" fill="#F3C977"/>
<path d="M154.791 151.431C153.176 151.431 151.84 152.768 151.84 154.383C151.84 155.998 153.176 157.334 154.791 157.334C156.406 157.334 157.743 155.998 157.743 154.383C157.743 152.768 156.462 151.431 154.791 151.431Z" fill="#F3C977"/>
</svg>
